<svg width="55" height="42" viewBox="0 0 55 42" fill="none" xmlns="http://www.w3.org/2000/svg">
<path d="M29.1572 11.995C30.8652 9.95999 33.4282 8.66699 36.2922 8.66699C41.4352 8.66699 45.6042 12.836 45.6042 17.979C45.6042 19.265 45.3432 20.49 44.8722 21.604" stroke="#1D202F" stroke-width="2" stroke-miterlimit="10" stroke-linecap="round" stroke-linejoin="round"/>
<path d="M28.729 7.7459L25.729 4.4209" stroke="#1D202F" stroke-width="2" stroke-miterlimit="10" stroke-linecap="round" stroke-linejoin="round"/>
<path d="M38.7002 4.849V1" stroke="#1D202F" stroke-width="2" stroke-miterlimit="10" stroke-linecap="round" stroke-linejoin="round"/>
<path d="M46.9028 9.79778L50.1498 6.55078" stroke="#1D202F" stroke-width="2" stroke-miterlimit="10" stroke-linecap="round" stroke-linejoin="round"/>
<path d="M48.8589 17.2021H53.9899" stroke="#1D202F" stroke-width="2" stroke-miterlimit="10" stroke-linecap="round" stroke-linejoin="round"/>
<path d="M37.189 21.7778C36.383 21.7778 35.606 21.8908 34.86 22.0828C33.8 17.3428 29.575 13.7988 24.516 13.7988C19.282 13.7988 14.945 17.5928 14.077 22.5778C12.925 22.0668 11.652 21.7768 10.31 21.7768C5.168 21.7768 1 25.9448 1 31.0868C1 36.2288 5.168 40.3968 10.31 40.3968C14.575 40.3968 33.16 40.3968 37.189 40.3968C42.331 40.3968 46.499 36.2288 46.499 31.0868C46.499 25.9448 42.331 21.7778 37.189 21.7778Z" stroke="#1D202F" stroke-width="2" stroke-miterlimit="10" stroke-linecap="round" stroke-linejoin="round"/>
</svg>
