<svg width="50" height="38" viewBox="0 0 50 38" fill="none" xmlns="http://www.w3.org/2000/svg">
<path d="M45.9121 17.522C47.4001 16.068 48.4191 14.134 48.7221 11.972C48.6641 11.973 48.6081 11.981 48.5501 11.981C43.2291 11.981 38.9151 7.667 38.9151 2.346C38.9151 1.888 38.9581 1.441 39.0201 1C35.0891 1.07 31.7321 3.489 30.2991 6.915" stroke="#1D202F" stroke-width="2" stroke-miterlimit="10" stroke-linecap="round" stroke-linejoin="round"/>
<path d="M37.189 17.8037C36.383 17.8037 35.606 17.9167 34.86 18.1087C33.8 13.3687 29.575 9.82471 24.516 9.82471C19.282 9.82471 14.945 13.6187 14.077 18.6037C12.925 18.0927 11.652 17.8027 10.31 17.8027C5.168 17.8027 1 21.9707 1 27.1127C1 32.2547 5.168 36.4227 10.31 36.4227C14.575 36.4227 33.16 36.4227 37.189 36.4227C42.331 36.4227 46.499 32.2547 46.499 27.1127C46.499 21.9707 42.331 17.8037 37.189 17.8037Z" stroke="#1D202F" stroke-width="2" stroke-miterlimit="10" stroke-linecap="round" stroke-linejoin="round"/>
</svg>
