<svg width="60" height="42" viewBox="0 0 60 42" fill="none" xmlns="http://www.w3.org/2000/svg">
<path d="M37.189 21.4028C36.383 21.4028 35.606 21.5158 34.86 21.7078C33.8 16.9678 29.575 13.4238 24.516 13.4238C19.282 13.4238 14.945 17.2178 14.077 22.2028C12.925 21.6918 11.652 21.4018 10.31 21.4018C5.168 21.4018 1 25.5698 1 30.7118C1 35.8538 5.168 40.0218 10.31 40.0218C14.575 40.0218 33.16 40.0218 37.189 40.0218C42.331 40.0218 46.499 35.8538 46.499 30.7118C46.5 25.5718 42.331 21.4028 37.189 21.4028Z" stroke="#1D202F" stroke-width="2" stroke-miterlimit="10" stroke-linecap="round" stroke-linejoin="round"/>
<path d="M49.6652 27.599C54.8072 27.599 58.9752 23.431 58.9752 18.289C58.9752 13.147 54.8072 8.979 49.6652 8.979C48.8592 8.979 48.0822 9.092 47.3362 9.284C46.2762 4.544 42.0512 1 36.9922 1C31.7582 1 27.4212 4.794 26.5532 9.779C25.4012 9.268 24.1282 8.978 22.7862 8.978C19.2492 8.978 16.1732 10.95 14.5972 13.855" stroke="#1D202F" stroke-width="2" stroke-miterlimit="10" stroke-linecap="round" stroke-linejoin="round"/>
</svg>
