<svg width="48" height="43" viewBox="0 0 48 43" fill="none" xmlns="http://www.w3.org/2000/svg">
<path d="M37.189 8.979C36.383 8.979 35.606 9.092 34.86 9.284C33.8 4.544 29.575 1 24.516 1C19.282 1 14.945 4.794 14.077 9.779C12.925 9.268 11.652 8.978 10.31 8.978C5.168 8.978 1 13.146 1 18.288C1 23.43 5.168 27.598 10.31 27.598C14.575 27.598 33.16 27.598 37.189 27.598C42.331 27.598 46.499 23.43 46.499 18.288C46.499 13.146 42.331 8.979 37.189 8.979Z" stroke="#1D202F" stroke-width="2" stroke-miterlimit="10" stroke-linecap="round" stroke-linejoin="round"/>
<path d="M10.8169 30.7651L6.19189 35.3901" stroke="#1D202F" stroke-width="2" stroke-miterlimit="10" stroke-linecap="round" stroke-linejoin="round"/>
<path d="M38.7539 30.7651L34.1289 35.3901" stroke="#1D202F" stroke-width="2" stroke-miterlimit="10" stroke-linecap="round" stroke-linejoin="round"/>
<path d="M20.3767 30.7651L10.0957 41.0461" stroke="#1D202F" stroke-width="2" stroke-miterlimit="10" stroke-linecap="round" stroke-linejoin="round"/>
<path d="M30.658 30.7651L20.377 41.0461" stroke="#1D202F" stroke-width="2" stroke-miterlimit="10" stroke-linecap="round" stroke-linejoin="round"/>
</svg>
