<svg width="59" height="54" viewBox="0 0 59 54" fill="none" xmlns="http://www.w3.org/2000/svg">
<path d="M33.0713 11.994C34.7793 9.95902 37.3423 8.66602 40.2063 8.66602C45.3493 8.66602 49.5183 12.835 49.5183 17.978C49.5183 19.264 49.2573 20.489 48.7863 21.603" stroke="#1D202F" stroke-width="2" stroke-miterlimit="10" stroke-linecap="round" stroke-linejoin="round"/>
<path d="M32.6431 7.74592L29.6431 4.41992" stroke="#1D202F" stroke-width="2" stroke-miterlimit="10" stroke-linecap="round" stroke-linejoin="round"/>
<path d="M42.6143 4.848V1" stroke="#1D202F" stroke-width="2" stroke-miterlimit="10" stroke-linecap="round" stroke-linejoin="round"/>
<path d="M50.8174 9.79727L54.0644 6.55127" stroke="#1D202F" stroke-width="2" stroke-miterlimit="10" stroke-linecap="round" stroke-linejoin="round"/>
<path d="M52.7729 17.2012H57.904" stroke="#1D202F" stroke-width="2" stroke-miterlimit="10" stroke-linecap="round" stroke-linejoin="round"/>
<path d="M37.189 20.856C36.383 20.856 35.606 20.969 34.86 21.161C33.8 16.421 29.575 12.877 24.516 12.877C19.282 12.877 14.945 16.671 14.077 21.656C12.925 21.145 11.652 20.855 10.31 20.855C5.168 20.855 1 25.023 1 30.165C1 35.307 5.168 39.475 10.31 39.475C14.575 39.475 33.16 39.475 37.189 39.475C42.331 39.475 46.499 35.307 46.499 30.165C46.499 25.023 42.331 20.856 37.189 20.856Z" stroke="#1D202F" stroke-width="2" stroke-miterlimit="10" stroke-linecap="round" stroke-linejoin="round"/>
<path d="M10.0464 42.6421L5.42139 47.2671" stroke="#1D202F" stroke-width="2" stroke-miterlimit="10" stroke-linecap="round" stroke-linejoin="round"/>
<path d="M37.9834 42.6421L33.3584 47.2671" stroke="#1D202F" stroke-width="2" stroke-miterlimit="10" stroke-linecap="round" stroke-linejoin="round"/>
<path d="M19.6062 42.6421L9.32422 52.9231" stroke="#1D202F" stroke-width="2" stroke-miterlimit="10" stroke-linecap="round" stroke-linejoin="round"/>
<path d="M29.887 42.6421L19.606 52.9231" stroke="#1D202F" stroke-width="2" stroke-miterlimit="10" stroke-linecap="round" stroke-linejoin="round"/>
</svg>
