<svg width="51" height="51" viewBox="0 0 51 51" fill="none" xmlns="http://www.w3.org/2000/svg">
<path d="M46.863 17.522C48.351 16.068 49.37 14.134 49.673 11.972C49.615 11.973 49.559 11.981 49.501 11.981C44.18 11.981 39.866 7.667 39.866 2.346C39.866 1.888 39.909 1.441 39.971 1C36.04 1.07 32.683 3.489 31.25 6.915" stroke="#1D202F" stroke-width="2" stroke-miterlimit="10" stroke-linecap="round" stroke-linejoin="round"/>
<path d="M37.189 16.835C36.383 16.835 35.606 16.948 34.86 17.14C33.8 12.4 29.575 8.85596 24.516 8.85596C19.282 8.85596 14.945 12.65 14.077 17.635C12.925 17.124 11.652 16.834 10.31 16.834C5.168 16.834 1 21.002 1 26.144C1 31.286 5.168 35.454 10.31 35.454C14.575 35.454 33.16 35.454 37.189 35.454C42.331 35.454 46.499 31.286 46.499 26.144C46.499 21.002 42.331 16.835 37.189 16.835Z" stroke="#1D202F" stroke-width="2" stroke-miterlimit="10" stroke-linecap="round" stroke-linejoin="round"/>
<path d="M9.84814 39.043L5.22314 43.668" stroke="#1D202F" stroke-width="2" stroke-miterlimit="10" stroke-linecap="round" stroke-linejoin="round"/>
<path d="M37.7861 39.043L33.1611 43.668" stroke="#1D202F" stroke-width="2" stroke-miterlimit="10" stroke-linecap="round" stroke-linejoin="round"/>
<path d="M19.408 39.043L9.12695 49.324" stroke="#1D202F" stroke-width="2" stroke-miterlimit="10" stroke-linecap="round" stroke-linejoin="round"/>
<path d="M29.6892 39.043L19.4082 49.324" stroke="#1D202F" stroke-width="2" stroke-miterlimit="10" stroke-linecap="round" stroke-linejoin="round"/>
</svg>
