<svg width="48" height="56" viewBox="0 0 48 56" fill="none" xmlns="http://www.w3.org/2000/svg">
<path d="M37.189 8.979C36.383 8.979 35.606 9.092 34.86 9.284C33.8 4.544 29.575 1 24.516 1C19.282 1 14.945 4.794 14.077 9.779C12.925 9.268 11.652 8.978 10.31 8.978C5.168 8.978 1 13.146 1 18.288C1 23.43 5.168 27.598 10.31 27.598C14.575 27.598 33.16 27.598 37.189 27.598C42.331 27.598 46.499 23.43 46.499 18.288C46.499 13.146 42.331 8.979 37.189 8.979Z" stroke="#1D202F" stroke-width="2" stroke-miterlimit="10" stroke-linecap="round" stroke-linejoin="round"/>
<path d="M36.6401 42.2939V55.1339" stroke="#1D202F" stroke-miterlimit="10" stroke-linecap="round" stroke-linejoin="round"/>
<path d="M43.0602 48.7139H30.2212" stroke="#1D202F" stroke-miterlimit="10" stroke-linecap="round" stroke-linejoin="round"/>
<path d="M32.1011 44.1748L41.1801 53.2528" stroke="#1D202F" stroke-miterlimit="10" stroke-linecap="round" stroke-linejoin="round"/>
<path d="M41.1801 44.1748L32.1011 53.2528" stroke="#1D202F" stroke-miterlimit="10" stroke-linecap="round" stroke-linejoin="round"/>
<path d="M32.1011 45.6558H33.5821V44.1748" stroke="#1D202F" stroke-miterlimit="10" stroke-linecap="round" stroke-linejoin="round"/>
<path d="M41.1802 45.6558H39.6982V44.1748" stroke="#1D202F" stroke-miterlimit="10" stroke-linecap="round" stroke-linejoin="round"/>
<path d="M39.6982 53.253V51.772H41.1802" stroke="#1D202F" stroke-miterlimit="10" stroke-linecap="round" stroke-linejoin="round"/>
<path d="M33.5821 51.772H32.1011H33.5821Z" stroke="#1D202F" stroke-miterlimit="10" stroke-linecap="round" stroke-linejoin="round"/>
<path d="M33.582 51.772V53.253" stroke="#1D202F" stroke-miterlimit="10" stroke-linecap="round" stroke-linejoin="round"/>
<path d="M35.5933 43.3418L36.6403 44.3888L37.6883 43.3418" stroke="#1D202F" stroke-miterlimit="10" stroke-linecap="round" stroke-linejoin="round"/>
<path d="M42.0133 49.762L40.9653 48.714L42.0133 47.667" stroke="#1D202F" stroke-miterlimit="10" stroke-linecap="round" stroke-linejoin="round"/>
<path d="M35.5933 54.0861L36.6403 53.0391L37.6883 54.0861" stroke="#1D202F" stroke-miterlimit="10" stroke-linecap="round" stroke-linejoin="round"/>
<path d="M32.316 48.714L31.269 47.667L32.316 48.714Z" stroke="#1D202F" stroke-miterlimit="10" stroke-linecap="round" stroke-linejoin="round"/>
<path d="M32.3161 48.7139L31.2681 49.7619" stroke="#1D202F" stroke-miterlimit="10" stroke-linecap="round" stroke-linejoin="round"/>
<path d="M18.0679 31.2134V48.6404" stroke="#1D202F" stroke-miterlimit="10" stroke-linecap="round" stroke-linejoin="round"/>
<path d="M26.781 39.9272H9.354" stroke="#1D202F" stroke-miterlimit="10" stroke-linecap="round" stroke-linejoin="round"/>
<path d="M11.9062 33.7651L24.2292 46.0881" stroke="#1D202F" stroke-miterlimit="10" stroke-linecap="round" stroke-linejoin="round"/>
<path d="M24.2292 33.7651L11.9062 46.0881" stroke="#1D202F" stroke-miterlimit="10" stroke-linecap="round" stroke-linejoin="round"/>
<path d="M11.9062 35.7761H13.9172V33.7651" stroke="#1D202F" stroke-miterlimit="10" stroke-linecap="round" stroke-linejoin="round"/>
<path d="M24.2292 35.7761H22.2192V33.7651" stroke="#1D202F" stroke-miterlimit="10" stroke-linecap="round" stroke-linejoin="round"/>
<path d="M22.2192 46.0886V44.0786H24.2292" stroke="#1D202F" stroke-miterlimit="10" stroke-linecap="round" stroke-linejoin="round"/>
<path d="M13.9172 44.0786H11.9062H13.9172Z" stroke="#1D202F" stroke-miterlimit="10" stroke-linecap="round" stroke-linejoin="round"/>
<path d="M13.917 44.0786V46.0886" stroke="#1D202F" stroke-miterlimit="10" stroke-linecap="round" stroke-linejoin="round"/>
<path d="M16.646 32.6353L18.068 34.0573L19.489 32.6353" stroke="#1D202F" stroke-miterlimit="10" stroke-linecap="round" stroke-linejoin="round"/>
<path d="M25.36 41.3484L23.938 39.9274L25.36 38.5054" stroke="#1D202F" stroke-miterlimit="10" stroke-linecap="round" stroke-linejoin="round"/>
<path d="M16.646 47.2194L18.068 45.7974L19.489 47.2194" stroke="#1D202F" stroke-miterlimit="10" stroke-linecap="round" stroke-linejoin="round"/>
<path d="M12.1979 39.9274L10.7759 38.5054L12.1979 39.9274Z" stroke="#1D202F" stroke-miterlimit="10" stroke-linecap="round" stroke-linejoin="round"/>
<path d="M12.1979 39.9272L10.7759 41.3482" stroke="#1D202F" stroke-miterlimit="10" stroke-linecap="round" stroke-linejoin="round"/>
</svg>
